<svg width="1309" height="155" viewBox="0 0 1309 155" fill="none" xmlns="http://www.w3.org/2000/svg">
<path opacity="0.1" d="M1274.21 54.844C1281.01 54.844 1287.02 56.1802 1292.25 58.8526C1297.47 61.5249 1301.54 65.1691 1304.45 69.7849C1307.37 74.4008 1308.83 79.6241 1308.83 85.4547C1308.83 92.0141 1307.31 97.9054 1304.27 103.129C1301.23 108.352 1297.04 112.482 1291.7 115.519C1286.35 118.434 1280.46 119.892 1274.03 119.892C1269.9 119.892 1265.52 119.709 1260.91 119.345C1259.21 119.224 1257.2 119.102 1254.89 118.981C1252.59 118.859 1249.97 118.798 1247.06 118.798L1235.03 118.981C1232.85 119.102 1229.81 119.163 1225.92 119.163C1225.68 119.163 1225.56 118.798 1225.56 118.07C1225.56 117.341 1225.68 116.976 1225.92 116.976C1230.78 116.976 1234.3 116.673 1236.49 116.065C1238.8 115.458 1240.38 114.304 1241.23 112.603C1242.08 110.781 1242.5 108.048 1242.5 104.404V20.0426C1242.5 16.3985 1242.08 13.7262 1241.23 12.0256C1240.5 10.325 1238.98 9.17099 1236.67 8.56363C1234.49 7.83481 1231.02 7.4704 1226.29 7.4704C1225.92 7.4704 1225.74 7.10599 1225.74 6.37716C1225.74 5.64834 1225.92 5.28393 1226.29 5.28393L1235.03 5.46613C1239.89 5.70907 1243.9 5.83054 1247.06 5.83054C1249.25 5.83054 1251.31 5.7698 1253.25 5.64833C1255.2 5.52687 1256.9 5.4054 1258.36 5.28393C1262.24 4.91951 1265.58 4.7373 1268.38 4.7373C1278.46 4.7373 1285.87 7.04525 1290.61 11.6611C1295.47 16.1556 1297.89 21.9254 1297.89 28.9707C1297.89 35.6516 1295.53 41.4215 1290.79 46.2803C1286.05 51.1392 1279.86 54.5404 1272.2 56.4839L1274.21 54.844ZM1264.19 7.10599C1260.79 7.10599 1258.29 7.34893 1256.72 7.83482C1255.14 8.32069 1253.92 9.47467 1253.07 11.2967C1252.34 13.1188 1251.98 16.1556 1251.98 20.407V56.1195L1246.51 54.6618C1251.74 55.0262 1256.41 55.2084 1260.54 55.2084C1270.14 55.2084 1277.12 52.9612 1281.5 48.4668C1285.87 43.8509 1288.06 37.7774 1288.06 30.2462C1288.06 23.4438 1286.11 17.9169 1282.22 13.6654C1278.46 9.29246 1272.45 7.10599 1264.19 7.10599ZM1271.47 116.976C1280.46 116.976 1287.14 114.668 1291.52 110.053C1296.01 105.315 1298.26 98.6343 1298.26 90.0098C1298.26 80.7781 1295.4 73.3076 1289.7 67.5985C1284.11 61.7679 1276.52 58.7918 1266.92 58.6704C1259.51 58.4274 1252.89 58.7311 1247.06 59.5814L1251.98 57.5771V104.404C1251.98 107.684 1252.46 110.235 1253.44 112.057C1254.53 113.757 1256.47 115.033 1259.27 115.883C1262.06 116.612 1266.13 116.976 1271.47 116.976Z" fill="white"/>
<path opacity="0.1" d="M1137.8 121.349C1126.51 121.349 1116.42 118.738 1107.56 113.515C1098.81 108.17 1092.01 101.003 1087.15 92.0142C1082.41 82.9039 1080.04 73.0041 1080.04 62.3146C1080.04 49.8031 1083.2 39.1137 1089.52 30.2463C1095.83 21.2575 1103.91 14.5158 1113.75 10.0214C1123.71 5.527 1133.85 3.27979 1144.18 3.27979C1155.72 3.27979 1165.86 6.01288 1174.61 11.4791C1183.35 16.8238 1190.03 23.9298 1194.65 32.7972C1199.39 41.6646 1201.76 51.0786 1201.76 61.0392C1201.76 72.093 1198.84 82.2358 1193.01 91.4676C1187.18 100.699 1179.35 107.988 1169.51 113.332C1159.79 118.677 1149.22 121.349 1137.8 121.349ZM1144.36 117.705C1152.99 117.705 1160.76 115.701 1167.68 111.693C1174.61 107.684 1180.07 101.793 1184.08 94.0185C1188.09 86.2444 1190.1 76.9519 1190.1 66.141C1190.1 54.7227 1187.85 44.5799 1183.35 35.7125C1178.98 26.7237 1172.73 19.7391 1164.59 14.7588C1156.57 9.77848 1147.22 7.28833 1136.53 7.28833C1122.44 7.28833 1111.44 11.6613 1103.55 20.4072C1095.65 29.1531 1091.7 41.0572 1091.7 56.1196C1091.7 67.4164 1093.89 77.8022 1098.26 87.2769C1102.76 96.6301 1109.01 104.04 1117.03 109.506C1125.05 114.972 1134.16 117.705 1144.36 117.705Z" fill="white"/>
<path opacity="0.1" d="M983.634 8.38149C975.981 8.38149 970.393 10.2036 966.871 13.8477C963.348 17.4918 960.979 23.9905 959.765 33.3438C959.765 33.5867 959.4 33.7082 958.671 33.7082C957.943 33.7082 957.578 33.5867 957.578 33.3438C958.064 30.064 958.611 24.8408 959.218 17.674C959.825 10.3858 960.129 4.91957 960.129 1.27545C960.129 0.668094 960.493 0.364418 961.222 0.364418C961.951 0.364418 962.315 0.668094 962.315 1.27545C962.315 3.94781 965.534 5.28399 971.972 5.28399C982.419 5.6484 994.627 5.8306 1008.6 5.8306C1015.76 5.8306 1023.35 5.70913 1031.37 5.46619L1043.76 5.28399C1048.13 5.28399 1051.35 4.98031 1053.42 4.37295C1055.48 3.76559 1056.82 2.55089 1057.43 0.728827C1057.55 0.242942 1057.91 0 1058.52 0C1059.13 0 1059.43 0.242942 1059.43 0.728827C1059.07 4.13001 1058.7 9.35326 1058.34 16.3986C1057.97 23.3224 1057.79 28.9708 1057.79 33.3438C1057.79 33.5867 1057.43 33.7082 1056.7 33.7082C1055.97 33.7082 1055.61 33.5867 1055.61 33.3438C1055.61 26.9058 1054.94 21.9255 1053.6 18.4028C1052.26 14.8802 1050.02 12.3293 1046.86 10.7502C1043.7 9.17105 1039.27 8.38149 1033.56 8.38149C1027.24 8.38149 1022.81 8.62443 1020.26 9.11031C1017.71 9.47473 1015.94 10.4465 1014.97 12.0256C1014.12 13.6047 1013.7 16.3986 1013.7 20.4071V104.404C1013.7 108.17 1014.12 110.903 1014.97 112.603C1015.82 114.304 1017.52 115.458 1020.07 116.065C1022.63 116.673 1026.63 116.976 1032.1 116.976C1032.34 116.976 1032.46 117.341 1032.46 118.07C1032.46 118.798 1032.34 119.163 1032.1 119.163C1028.09 119.163 1024.93 119.102 1022.63 118.981L1008.6 118.798L995.295 118.981C992.865 119.102 989.525 119.163 985.273 119.163C985.031 119.163 984.909 118.798 984.909 118.07C984.909 117.341 985.031 116.976 985.273 116.976C990.74 116.976 994.748 116.673 997.299 116.065C999.85 115.458 1001.55 114.304 1002.4 112.603C1003.37 110.781 1003.86 108.048 1003.86 104.404V20.0427C1003.86 16.0342 1003.37 13.3011 1002.4 11.8434C1001.43 10.2643 999.668 9.29252 997.117 8.92811C994.687 8.5637 990.193 8.38149 983.634 8.38149Z" fill="white"/>
<path opacity="0.1" d="M854.415 119.163C854.172 119.163 854.051 118.799 854.051 118.07C854.051 117.341 854.172 116.977 854.415 116.977C859.153 116.977 862.614 116.673 864.801 116.066C867.109 115.458 868.627 114.304 869.356 112.604C870.206 110.782 870.632 108.049 870.632 104.404V20.0429C870.632 16.3988 870.206 13.7264 869.356 12.0258C868.627 10.3252 867.109 9.17124 864.801 8.56388C862.614 7.83506 859.153 7.47065 854.415 7.47065C854.172 7.47065 854.051 7.10624 854.051 6.37741C854.051 5.64859 854.172 5.28418 854.415 5.28418H926.569C927.662 5.28418 928.209 5.8308 928.209 6.92403L928.573 28.971C928.573 29.3354 928.209 29.5176 927.48 29.5176C926.873 29.5176 926.569 29.3354 926.569 28.971C926.569 22.776 924.929 17.8564 921.649 14.2123C918.37 10.5682 914.057 8.7461 908.713 8.7461H896.14C891.525 8.7461 888.123 9.04977 885.937 9.65713C883.75 10.2645 882.232 11.4185 881.382 13.119C880.653 14.8196 880.289 17.492 880.289 21.1361V103.676C880.289 107.198 880.653 109.81 881.382 111.51C882.232 113.09 883.69 114.183 885.755 114.79C887.941 115.397 891.403 115.701 896.14 115.701H912.903C917.762 115.701 921.892 113.575 925.293 109.324C928.816 105.072 931.063 99.4848 932.035 92.561C932.035 92.1966 932.399 92.0751 933.128 92.1966C933.857 92.1966 934.222 92.3788 934.222 92.7432C933.128 100.396 932.582 108.291 932.582 116.43C932.582 117.402 932.339 118.131 931.853 118.616C931.488 118.981 930.76 119.163 929.666 119.163H854.415ZM919.463 76.3446C919.463 70.8784 918.309 67.0521 916.001 64.8656C913.693 62.6792 909.624 61.5859 903.793 61.5859H875.733V58.124H904.34C909.927 58.124 913.814 57.213 916.001 55.3909C918.187 53.4474 919.281 50.1677 919.281 45.5518C919.281 45.3088 919.645 45.1874 920.374 45.1874C921.103 45.1874 921.467 45.3088 921.467 45.5518L921.285 59.9461C921.285 63.4687 921.346 66.0803 921.467 67.7809L921.649 76.3446C921.649 76.5876 921.285 76.709 920.556 76.709C919.827 76.709 919.463 76.5876 919.463 76.3446Z" fill="white"/>
<path opacity="0.1" d="M795.411 54.844C802.213 54.844 808.226 56.1802 813.449 58.8526C818.672 61.5249 822.742 65.1691 825.657 69.7849C828.572 74.4008 830.03 79.6241 830.03 85.4547C830.03 92.0141 828.512 97.9054 825.475 103.129C822.438 108.352 818.247 112.482 812.903 115.519C807.558 118.434 801.667 119.892 795.229 119.892C791.099 119.892 786.726 119.709 782.11 119.345C780.409 119.224 778.405 119.102 776.097 118.981C773.789 118.859 771.177 118.798 768.262 118.798L756.236 118.981C754.05 119.102 751.013 119.163 747.126 119.163C746.883 119.163 746.762 118.798 746.762 118.07C746.762 117.341 746.883 116.976 747.126 116.976C751.985 116.976 755.508 116.673 757.694 116.065C760.002 115.458 761.581 114.304 762.431 112.603C763.282 110.781 763.707 108.048 763.707 104.404V20.0426C763.707 16.3985 763.282 13.7262 762.431 12.0256C761.703 10.325 760.184 9.17099 757.876 8.56363C755.69 7.83481 752.228 7.4704 747.491 7.4704C747.126 7.4704 746.944 7.10599 746.944 6.37716C746.944 5.64834 747.126 5.28393 747.491 5.28393L756.236 5.46613C761.095 5.70907 765.104 5.83054 768.262 5.83054C770.449 5.83054 772.514 5.7698 774.457 5.64833C776.401 5.52687 778.101 5.4054 779.559 5.28393C783.446 4.91951 786.786 4.7373 789.58 4.7373C799.662 4.7373 807.072 7.04525 811.809 11.6611C816.668 16.1556 819.098 21.9254 819.098 28.9707C819.098 35.6516 816.729 41.4215 811.992 46.2803C807.254 51.1392 801.059 54.5404 793.407 56.4839L795.411 54.844ZM785.389 7.10599C781.988 7.10599 779.498 7.34893 777.919 7.83482C776.34 8.32069 775.125 9.47467 774.275 11.2967C773.546 13.1188 773.182 16.1556 773.182 20.407V56.1195L767.715 54.6618C772.939 55.0262 777.615 55.2084 781.745 55.2084C791.342 55.2084 798.326 52.9612 802.699 48.4668C807.072 43.8509 809.258 37.7774 809.258 30.2462C809.258 23.4438 807.315 17.9169 803.428 13.6654C799.662 9.29246 793.649 7.10599 785.389 7.10599ZM792.678 116.976C801.667 116.976 808.347 114.668 812.72 110.053C817.215 105.315 819.462 98.6343 819.462 90.0098C819.462 80.7781 816.607 73.3076 810.898 67.5985C805.311 61.7679 797.719 58.7918 788.123 58.6704C780.713 58.4274 774.093 58.7311 768.262 59.5814L773.182 57.5771V104.404C773.182 107.684 773.668 110.235 774.639 112.057C775.733 113.757 777.676 115.033 780.47 115.883C783.264 116.612 787.333 116.976 792.678 116.976Z" fill="white"/>
<path opacity="0.1" d="M721.51 153.236C721.51 144.733 720.659 137.991 718.959 133.011C717.38 128.152 714.768 124.629 711.124 122.443C707.48 120.256 702.499 119.163 696.183 119.163H606.173C605.93 119.163 605.809 118.799 605.809 118.07C605.809 117.341 605.93 116.977 606.173 116.977C610.91 116.977 614.372 116.673 616.559 116.066C618.867 115.458 620.446 114.304 621.296 112.604C622.146 110.782 622.572 108.049 622.572 104.404V20.0429C622.572 16.3988 622.146 13.7264 621.296 12.0258C620.446 10.3252 618.867 9.17124 616.559 8.56388C614.372 7.83506 610.91 7.47065 606.173 7.47065C605.93 7.47065 605.809 7.10624 605.809 6.37741C605.809 5.64859 605.93 5.28418 606.173 5.28418L615.283 5.46638C620.142 5.70932 624.151 5.83079 627.309 5.83079C630.71 5.83079 634.84 5.70932 639.699 5.46638L648.445 5.28418C648.688 5.28418 648.809 5.64859 648.809 6.37741C648.809 7.10624 648.688 7.47065 648.445 7.47065C643.586 7.47065 640.063 7.83506 637.877 8.56388C635.69 9.17124 634.172 10.3252 633.322 12.0258C632.593 13.7264 632.229 16.3988 632.229 20.0429V104.04C632.229 108.17 632.471 110.903 632.957 112.239C633.443 113.575 634.597 114.426 636.419 114.79C638.241 115.155 642.007 115.337 647.716 115.337H681.789C687.741 115.337 691.688 115.155 693.632 114.79C695.697 114.426 696.972 113.575 697.458 112.239C698.066 110.782 698.369 108.049 698.369 104.04V20.0429C698.369 16.3988 697.944 13.7264 697.094 12.0258C696.365 10.3252 694.907 9.17124 692.721 8.56388C690.535 7.83506 687.012 7.47065 682.153 7.47065C681.789 7.47065 681.606 7.10624 681.606 6.37741C681.606 5.64859 681.789 5.28418 682.153 5.28418L690.717 5.46638C695.819 5.70932 699.949 5.83079 703.107 5.83079C706.265 5.83079 710.395 5.70932 715.497 5.46638L724.243 5.28418C724.607 5.28418 724.789 5.64859 724.789 6.37741C724.789 7.10624 724.607 7.47065 724.243 7.47065C719.505 7.47065 715.983 7.83506 713.675 8.56388C711.488 9.17124 709.97 10.3252 709.12 12.0258C708.269 13.7264 707.844 16.3988 707.844 20.0429V104.404C707.844 109.02 708.026 112.057 708.391 113.515C708.877 114.972 709.97 115.944 711.67 116.43C713.493 116.794 717.015 116.977 722.238 116.977C723.089 116.977 723.575 117.098 723.696 117.341C723.939 117.463 724.06 118.07 724.06 119.163V123.9C723.818 129.731 723.696 139.509 723.696 153.236C723.696 153.843 723.332 154.147 722.603 154.147C721.874 154.147 721.51 153.843 721.51 153.236Z" fill="white"/>
<path opacity="0.1" d="M460.005 8.38149C452.352 8.38149 446.764 10.2036 443.242 13.8477C439.719 17.4918 437.35 23.9905 436.136 33.3438C436.136 33.5867 435.771 33.7082 435.042 33.7082C434.314 33.7082 433.949 33.5867 433.949 33.3438C434.435 30.064 434.982 24.8408 435.589 17.674C436.196 10.3858 436.5 4.91957 436.5 1.27545C436.5 0.668094 436.865 0.364418 437.593 0.364418C438.322 0.364418 438.687 0.668094 438.687 1.27545C438.687 3.94781 441.906 5.28399 448.344 5.28399C458.79 5.6484 470.998 5.8306 484.967 5.8306C492.134 5.8306 499.726 5.70913 507.743 5.46619L520.133 5.28399C524.506 5.28399 527.725 4.98031 529.79 4.37295C531.855 3.76559 533.191 2.55089 533.798 0.728827C533.92 0.242942 534.284 0 534.892 0C535.499 0 535.803 0.242942 535.803 0.728827C535.438 4.13001 535.074 9.35326 534.709 16.3986C534.345 23.3224 534.163 28.9708 534.163 33.3438C534.163 33.5867 533.798 33.7082 533.069 33.7082C532.341 33.7082 531.976 33.5867 531.976 33.3438C531.976 26.9058 531.308 21.9255 529.972 18.4028C528.636 14.8802 526.389 12.3293 523.23 10.7502C520.072 9.17105 515.638 8.38149 509.929 8.38149C503.613 8.38149 499.179 8.62443 496.628 9.11031C494.077 9.47473 492.316 10.4465 491.344 12.0256C490.494 13.6047 490.069 16.3986 490.069 20.4071V104.404C490.069 108.17 490.494 110.903 491.344 112.603C492.194 114.304 493.895 115.458 496.446 116.065C498.997 116.673 503.005 116.976 508.472 116.976C508.715 116.976 508.836 117.341 508.836 118.07C508.836 118.798 508.715 119.163 508.472 119.163C504.463 119.163 501.305 119.102 498.997 118.981L484.967 118.798L471.666 118.981C469.237 119.102 465.896 119.163 461.645 119.163C461.402 119.163 461.28 118.798 461.28 118.07C461.28 117.341 461.402 116.976 461.645 116.976C467.111 116.976 471.119 116.673 473.67 116.065C476.221 115.458 477.922 114.304 478.772 112.603C479.744 110.781 480.23 108.048 480.23 104.404V20.0427C480.23 16.0342 479.744 13.3011 478.772 11.8434C477.8 10.2643 476.039 9.29252 473.488 8.92811C471.059 8.5637 466.564 8.38149 460.005 8.38149Z" fill="white"/>
<path opacity="0.1" d="M373.284 3.27979C379.236 3.27979 385.188 3.88714 391.14 5.10184C397.214 6.31655 402.073 7.95641 405.717 10.0214C406.689 10.6288 407.296 11.2361 407.539 11.8435C407.903 12.3294 408.146 13.1797 408.268 14.3944L410.272 33.526C410.272 33.8904 409.968 34.1334 409.361 34.2549C408.754 34.2549 408.389 34.0726 408.268 33.7082C403.895 15.9735 389.865 7.10612 366.178 7.10612C356.703 7.10612 348.322 9.17113 341.034 13.3011C333.867 17.3097 328.279 23.0188 324.271 30.4285C320.262 37.8382 318.258 46.4019 318.258 56.1196C318.258 67.5379 320.748 78.1058 325.728 87.8235C330.708 97.4197 337.329 105.072 345.589 110.781C353.849 116.369 362.777 119.163 372.373 119.163C381.362 119.163 389.075 116.794 395.513 112.057C402.073 107.32 406.871 100.092 409.908 90.3744C409.908 90.01 410.15 89.8278 410.636 89.8278C411.001 89.8278 411.304 89.8885 411.547 90.01C411.912 90.1314 412.094 90.3137 412.094 90.5566L409.543 110.053C409.3 111.51 408.996 112.482 408.632 112.968C408.389 113.332 407.721 113.758 406.628 114.243C395.817 118.981 384.216 121.349 371.826 121.349C357.25 121.349 345.103 118.434 335.385 112.604C325.667 106.651 318.501 99.1203 313.885 90.01C309.269 80.7782 306.961 71.1213 306.961 61.0392C306.961 49.9853 310.058 40.0855 316.253 31.3396C322.448 22.4722 330.648 15.6091 340.851 10.7502C351.055 5.76994 361.866 3.27979 373.284 3.27979Z" fill="white"/>
<path opacity="0.1" d="M217.931 121.349C206.634 121.349 196.552 118.738 187.685 113.515C178.939 108.17 172.137 101.003 167.278 92.0142C162.541 82.9039 160.172 73.0041 160.172 62.3146C160.172 49.8031 163.33 39.1137 169.647 30.2463C175.963 21.2575 184.041 14.5158 193.88 10.0214C203.841 5.527 213.983 3.27979 224.308 3.27979C235.848 3.27979 245.991 6.01288 254.737 11.4791C263.483 16.8238 270.164 23.9298 274.78 32.7972C279.517 41.6646 281.886 51.0786 281.886 61.0392C281.886 72.093 278.97 82.2358 273.14 91.4676C267.309 100.699 259.474 107.988 249.635 113.332C239.917 118.677 229.35 121.349 217.931 121.349ZM224.491 117.705C233.115 117.705 240.889 115.701 247.813 111.693C254.737 107.684 260.203 101.793 264.212 94.0185C268.22 86.2444 270.224 76.9519 270.224 66.141C270.224 54.7227 267.977 44.5799 263.483 35.7125C259.11 26.7237 252.854 19.7391 244.716 14.7588C236.699 9.77848 227.345 7.28833 216.656 7.28833C202.565 7.28833 191.572 11.6613 183.676 20.4072C175.781 29.1531 171.833 41.0572 171.833 56.1196C171.833 67.4164 174.02 77.8022 178.393 87.2769C182.887 96.6301 189.143 104.04 197.16 109.506C205.177 114.972 214.287 117.705 224.491 117.705Z" fill="white"/>
<path opacity="0.1" d="M16.3986 9.47491L20.4071 9.83933L18.7672 100.214C18.6458 106.53 19.6783 110.903 21.8648 113.333C24.0512 115.762 28.1205 116.977 34.0726 116.977C34.3155 116.977 34.437 117.341 34.437 118.07C34.437 118.799 34.3155 119.163 34.0726 119.163C30.6714 119.163 28.0598 119.102 26.2377 118.981L16.3986 118.799L7.47046 118.981C5.89134 119.102 3.52265 119.163 0.364412 119.163C0.121471 119.163 0 118.799 0 118.07C0 117.341 0.121471 116.977 0.364412 116.977C5.46619 116.977 9.04958 115.762 11.1146 113.333C13.3011 110.782 14.455 106.409 14.5765 100.214L16.3986 9.47491ZM139.752 116.977C140.117 116.977 140.299 117.341 140.299 118.07C140.299 118.799 140.117 119.163 139.752 119.163C135.987 119.163 133.011 119.102 130.824 118.981L118.616 118.799L107.319 118.981C105.497 119.102 102.947 119.163 99.6668 119.163C99.4239 119.163 99.3024 118.799 99.3024 118.07C99.3024 117.341 99.4239 116.977 99.6668 116.977C103.918 116.977 107.016 116.673 108.959 116.066C111.024 115.337 112.361 114.122 112.968 112.421C113.697 110.721 113.94 108.049 113.697 104.404L110.417 14.5767L115.701 7.83507L67.9629 117.888C67.72 118.374 67.2341 118.616 66.5053 118.616C65.8979 118.616 65.3513 118.374 64.8654 117.888L20.4071 20.4073C18.4636 15.9129 15.9127 12.6332 12.7544 10.5682C9.71767 8.50315 6.01281 7.47065 1.63986 7.47065C1.39691 7.47065 1.27544 7.10624 1.27544 6.37741C1.27544 5.64859 1.39691 5.28418 1.63986 5.28418L7.83487 5.46638C9.04958 5.58785 10.6287 5.64859 12.5722 5.64859C14.5158 5.64859 16.1556 5.58785 17.4918 5.46638C18.828 5.34492 19.8605 5.28418 20.5893 5.28418C22.2899 5.28418 23.6261 5.89153 24.5978 7.10624C25.5696 8.19948 27.0273 10.7504 28.9708 14.7589L70.696 104.951L65.9587 112.604L110.781 9.83933C111.389 8.50316 112.178 7.40992 113.15 6.55962C114.243 5.70933 115.276 5.28418 116.248 5.28418C116.733 5.28418 117.523 5.34492 118.616 5.46638C119.71 5.58785 121.228 5.64859 123.171 5.64859L131.371 5.46638C132.585 5.34492 134.468 5.28418 137.019 5.28418C137.262 5.28418 137.384 5.64859 137.384 6.37741C137.384 7.10624 137.262 7.47065 137.019 7.47065C130.703 7.47065 126.208 8.32095 123.536 10.0215C120.985 11.6007 119.77 14.8196 119.892 19.6785L123.354 104.404C123.475 108.17 123.9 110.903 124.629 112.604C125.479 114.304 126.998 115.458 129.184 116.066C131.492 116.673 135.015 116.977 139.752 116.977Z" fill="white"/>
</svg>
