<svg width="29" height="19" viewBox="0 0 29 19" fill="none" xmlns="http://www.w3.org/2000/svg">
<path d="M16.272 0.3744L22.3293 8.1984H0.192C0.128 8.1984 0.08 8.3104 0.048 8.5344C0.016 8.7264 0 8.9504 0 9.2064C0 9.4944 0.016 9.7664 0.048 10.0224C0.112 10.2464 0.176 10.3584 0.24 10.3584H22.362L16.272 18.1824C16.24 18.2784 16.256 18.3744 16.32 18.4704C16.384 18.5344 16.464 18.5664 16.56 18.5664C16.624 18.5664 16.672 18.5504 16.704 18.5184L28.176 9.6384C28.304 9.5744 28.368 9.4624 28.368 9.3024C28.368 9.1424 28.304 9.0304 28.176 8.9664L16.704 0.0384002C16.608 -0.0255999 16.512 -0.00960014 16.416 0.0863996C16.32 0.1504 16.272 0.2304 16.272 0.326399V0.3744Z" fill="#171717"/>
</svg>
