<svg width="2692" height="1000" viewBox="0 0 2692 1000" fill="none" xmlns="http://www.w3.org/2000/svg">
<g clip-path="url(#clip0_572_497)">
<g opacity="0.1">
<path d="M2244.45 580.585L2591.07 37.5388L2692.17 31.7617L2253.11 709.125C2185.23 813.112 2153.46 893.992 2153.46 937.32C2153.46 973.426 2185.23 1006.64 2221.34 1005.2C2299.33 1002.31 2474.08 889.659 2661.84 625.357L2670.51 632.578C2468.31 917.1 2329.66 980.648 2302.22 996.535C2287.77 1008.09 2269 1028.31 2254.56 1058.64C2241.56 1086.08 2237.22 1117.85 2237.22 1148.18C2241.56 1246.39 2178.01 1298.39 2098.57 1327.27L2035.03 1348.94L2030.69 1337.38L2097.13 1314.27C2149.12 1285.39 2152.01 1237.73 2156.34 1175.62C2157.79 1084.64 2251.67 1026.86 2273.33 1008.09C2248.78 1019.64 2224.23 1023.98 2195.34 1023.98C2124.57 1023.98 2081.24 980.648 2081.24 906.99C2081.24 859.329 2100.02 813.112 2133.24 759.674C1972.92 941.653 1822.72 1022.53 1731.73 1022.53C1669.63 1022.53 1630.63 984.981 1630.63 917.1C1630.63 830.444 1695.62 740.899 1783.72 610.914C1971.48 333.614 2078.35 176.189 2078.35 108.308C2078.35 54.8701 2052.36 25.9847 2000.36 25.9847C1922.37 25.9847 1835.72 62.0914 1746.17 137.193C1646.52 220.961 1595.97 306.173 1595.97 391.385C1595.97 456.377 1639.3 501.15 1692.73 501.15C1747.62 501.15 1801.05 462.155 1867.49 389.941L1873.27 395.718C1816.94 476.597 1747.62 517.037 1686.96 517.037C1624.85 517.037 1572.86 463.599 1572.86 400.051C1572.86 324.949 1623.41 219.517 1718.73 137.193C1814.05 54.8701 1929.59 10.0977 2019.14 10.0977C2105.8 10.0977 2152.01 54.8701 2152.01 128.528C2152.01 210.851 2037.91 363.944 1867.49 623.913C1764.95 781.338 1705.73 880.993 1705.73 940.208C1705.73 971.982 1736.06 1000.87 1769.28 1000.87C1803.94 1000.87 1902.15 961.872 2007.58 869.439C2085.58 801.558 2165.01 704.792 2244.45 580.585Z" fill="white"/>
<path d="M2244.45 580.585L2591.07 37.5388L2692.17 31.7617L2253.11 709.125C2185.23 813.112 2153.46 893.992 2153.46 937.32C2153.46 973.426 2185.23 1006.64 2221.34 1005.2C2299.33 1002.31 2474.08 889.659 2661.84 625.357L2670.51 632.578C2468.31 917.1 2329.66 980.648 2302.22 996.535C2287.77 1008.09 2269 1028.31 2254.56 1058.64C2241.56 1086.08 2237.22 1117.85 2237.22 1148.18C2241.56 1246.39 2178.01 1298.39 2098.57 1327.27L2035.03 1348.94L2030.69 1337.38L2097.13 1314.27C2149.12 1285.39 2152.01 1237.73 2156.34 1175.62C2157.79 1084.64 2251.67 1026.86 2273.33 1008.09C2248.78 1019.64 2224.23 1023.98 2195.34 1023.98C2124.57 1023.98 2081.24 980.648 2081.24 906.99C2081.24 859.329 2100.02 813.112 2133.24 759.674C1972.92 941.653 1822.72 1022.53 1731.73 1022.53C1669.63 1022.53 1630.63 984.981 1630.63 917.1C1630.63 830.444 1695.62 740.899 1783.72 610.914C1971.48 333.614 2078.35 176.189 2078.35 108.308C2078.35 54.8701 2052.36 25.9847 2000.36 25.9847C1922.37 25.9847 1835.72 62.0914 1746.17 137.193C1646.52 220.961 1595.97 306.173 1595.97 391.385C1595.97 456.377 1639.3 501.15 1692.73 501.15C1747.62 501.15 1801.05 462.155 1867.49 389.941L1873.27 395.718C1816.94 476.597 1747.62 517.037 1686.96 517.037C1624.85 517.037 1572.86 463.599 1572.86 400.051C1572.86 324.949 1623.41 219.517 1718.73 137.193C1814.05 54.8701 1929.59 10.0977 2019.14 10.0977C2105.8 10.0977 2152.01 54.8701 2152.01 128.528C2152.01 210.851 2037.91 363.944 1867.49 623.913C1764.95 781.338 1705.73 880.993 1705.73 940.208C1705.73 971.982 1736.06 1000.87 1769.28 1000.87C1803.94 1000.87 1902.15 961.872 2007.58 869.439C2085.58 801.558 2165.01 704.792 2244.45 580.585Z" fill="white"/>
</g>
<g opacity="0.1">
<path d="M1179.97 0L1182.86 5.77708C1025.43 63.5479 938.776 179.09 870.896 374.066C801.571 571.931 771.241 791.46 635.479 951.775L638.368 953.219C709.137 895.448 785.684 788.572 892.56 644.145C958.996 554.6 1022.54 446.28 1113.53 340.848C1307.07 116.986 1497.71 2.88849 1718.68 2.88849C1759.12 2.88849 1777.9 5.7771 1777.9 18.7755C1777.9 27.4411 1769.23 34.6625 1750.46 34.6625C1710.02 34.6625 1678.24 24.5525 1660.91 24.5525C1646.47 24.5525 1559.81 67.8807 1478.93 164.647C1385.06 277.3 1333.06 413.061 1270.96 544.49C1153.97 790.016 1047.1 937.332 891.115 993.659C1151.08 993.659 1308.51 881.005 1452.94 628.258L1464.49 634.035C1328.73 879.561 1165.53 1005.21 915.668 1005.21C901.225 1005.21 888.227 1005.21 873.784 1003.77C843.454 1009.55 820.346 1012.43 807.348 1012.43C790.016 1012.43 781.351 1008.1 781.351 997.991C781.351 990.77 787.128 986.437 798.682 986.437C823.235 986.437 846.343 990.77 866.563 993.659C943.109 957.552 995.103 904.114 1042.76 826.123C1100.53 732.245 1148.2 608.038 1217.52 465.055C1318.62 255.636 1439.94 114.097 1607.47 31.7739L1606.03 25.9969C1348.95 76.5463 1174.19 262.857 971.995 553.156C781.351 826.123 652.811 983.548 570.487 1021.1L563.266 1013.88C609.482 953.219 636.924 873.784 668.698 778.462C717.803 628.258 745.244 496.829 785.684 392.842C842.01 249.859 931.555 138.65 1068.76 46.2167L1067.32 43.3281C823.235 116.986 684.585 329.294 511.272 613.815C358.179 866.563 258.525 1022.54 101.099 1022.54C36.1068 1022.54 0 995.103 0 951.775C0 918.556 20.2198 895.448 49.1052 895.448C73.6578 895.448 90.9891 914.224 90.9891 935.888C90.9891 966.217 76.5464 980.66 47.6609 980.66C66.4365 992.214 86.6563 996.547 109.765 996.547C209.419 996.547 277.3 938.776 358.179 830.456C436.17 726.468 499.718 605.15 576.264 482.386C743.8 210.864 899.781 56.3265 1179.97 0Z" fill="white"/>
<path d="M1179.97 0L1182.86 5.77708C1025.43 63.5479 938.776 179.09 870.896 374.066C801.571 571.931 771.241 791.46 635.479 951.775L638.368 953.219C709.137 895.448 785.684 788.572 892.56 644.145C958.996 554.6 1022.54 446.28 1113.53 340.848C1307.07 116.986 1497.71 2.88849 1718.68 2.88849C1759.12 2.88849 1777.9 5.7771 1777.9 18.7755C1777.9 27.4411 1769.23 34.6625 1750.46 34.6625C1710.02 34.6625 1678.24 24.5525 1660.91 24.5525C1646.47 24.5525 1559.81 67.8807 1478.93 164.647C1385.06 277.3 1333.06 413.061 1270.96 544.49C1153.97 790.016 1047.1 937.332 891.115 993.659C1151.08 993.659 1308.51 881.005 1452.94 628.258L1464.49 634.035C1328.73 879.561 1165.53 1005.21 915.668 1005.21C901.225 1005.21 888.227 1005.21 873.784 1003.77C843.454 1009.55 820.346 1012.43 807.348 1012.43C790.016 1012.43 781.351 1008.1 781.351 997.991C781.351 990.77 787.128 986.437 798.682 986.437C823.235 986.437 846.343 990.77 866.563 993.659C943.109 957.552 995.103 904.114 1042.76 826.123C1100.53 732.245 1148.2 608.038 1217.52 465.055C1318.62 255.636 1439.94 114.097 1607.47 31.7739L1606.03 25.9969C1348.95 76.5463 1174.19 262.857 971.995 553.156C781.351 826.123 652.811 983.548 570.487 1021.1L563.266 1013.88C609.482 953.219 636.924 873.784 668.698 778.462C717.803 628.258 745.244 496.829 785.684 392.842C842.01 249.859 931.555 138.65 1068.76 46.2167L1067.32 43.3281C823.235 116.986 684.585 329.294 511.272 613.815C358.179 866.563 258.525 1022.54 101.099 1022.54C36.1068 1022.54 0 995.103 0 951.775C0 918.556 20.2198 895.448 49.1052 895.448C73.6578 895.448 90.9891 914.224 90.9891 935.888C90.9891 966.217 76.5464 980.66 47.6609 980.66C66.4365 992.214 86.6563 996.547 109.765 996.547C209.419 996.547 277.3 938.776 358.179 830.456C436.17 726.468 499.718 605.15 576.264 482.386C743.8 210.864 899.781 56.3265 1179.97 0Z" fill="white"/>
</g>
</g>
<defs>
<clipPath id="clip0_572_497">
<rect width="2692" height="1000" fill="white"/>
</clipPath>
</defs>
</svg>
