<svg width="13" height="13" viewBox="0 0 13 13" fill="none" xmlns="http://www.w3.org/2000/svg">
<g clip-path="url(#clip0_592_7335)">
<path d="M6.14693 0.168306C2.48728 0.359534 0.0714915 3.22971 0.224123 6.84901C0.29079 8.43322 0.927632 9.79638 1.07851 11.2999C1.11711 11.6894 1.00482 12.1701 1.45395 12.3402C2.00658 12.549 2.85395 12.1981 3.31711 11.8771C3.475 11.7701 3.62588 11.6455 3.74167 11.4911C4.22061 11.8087 4.675 12.1157 5.24518 12.2525C7.7557 12.8543 10.5066 11.4771 11.7294 9.2648C14.0276 5.10866 10.9206 -0.0808169 6.14693 0.168306ZM4.72588 8.84199C4.52763 8.99638 4.3364 9.2069 4.11711 9.32795C3.79956 9.49813 3.70132 9.32094 3.58202 9.04024C3.20658 8.14725 3.16096 6.6262 3.38026 5.69111C3.675 4.41918 4.65921 3.29988 6.01184 3.18059C7.38026 3.05953 8.65044 3.75427 9.22412 5.00866C10.4943 7.79989 7.24342 10.556 4.72588 8.84374V8.84199Z" fill="white"/>
<path d="M6.14693 0.168306C2.48728 0.359534 0.0714915 3.22971 0.224123 6.84901C0.29079 8.43322 0.927632 9.79638 1.07851 11.2999C1.11711 11.6894 1.00482 12.1701 1.45395 12.3402C2.00658 12.549 2.85395 12.1981 3.31711 11.8771C3.475 11.7701 3.62588 11.6455 3.74167 11.4911C4.22061 11.8087 4.675 12.1157 5.24518 12.2525C7.7557 12.8543 10.5066 11.4771 11.7294 9.2648C14.0276 5.10866 10.9206 -0.0808169 6.14693 0.168306ZM4.72588 8.84199C4.52763 8.99638 4.3364 9.2069 4.11711 9.32795C3.79956 9.49813 3.70132 9.32094 3.58202 9.04024C3.20658 8.14725 3.16096 6.6262 3.38026 5.69111C3.675 4.41918 4.65921 3.29988 6.01184 3.18059C7.38026 3.05953 8.65044 3.75427 9.22412 5.00866C10.4943 7.79989 7.24342 10.556 4.72588 8.84374V8.84199Z" fill="#1D2023"/>
</g>
<defs>
<clipPath id="clip0_592_7335">
<rect width="12.6316" height="12.6316" fill="white"/>
</clipPath>
</defs>
</svg>
