<svg width="212" height="83" viewBox="0 0 212 83" fill="none" xmlns="http://www.w3.org/2000/svg">
<path d="M1.104 41.2338V32.7138H6.456V33.7218H2.136V36.4698H6.312V37.4538H2.136V40.2258H6.552V41.2338H1.104ZM11.3825 41.4258C10.7265 41.4258 10.1545 41.3018 9.66647 41.0538C9.17847 40.8058 8.79047 40.4658 8.50247 40.0338C8.22247 39.5938 8.05847 39.0858 8.01047 38.5098L9.09047 38.4378C9.14647 38.8618 9.27047 39.2218 9.46247 39.5178C9.65447 39.8138 9.91047 40.0378 10.2305 40.1898C10.5585 40.3418 10.9505 40.4178 11.4065 40.4178C11.8065 40.4178 12.1465 40.3658 12.4265 40.2618C12.7065 40.1578 12.9185 40.0058 13.0625 39.8058C13.2145 39.6058 13.2905 39.3618 13.2905 39.0738C13.2905 38.8098 13.2265 38.5778 13.0985 38.3778C12.9785 38.1698 12.7425 37.9818 12.3905 37.8138C12.0465 37.6378 11.5345 37.4658 10.8545 37.2978C10.1985 37.1298 9.67447 36.9458 9.28247 36.7458C8.89847 36.5458 8.61847 36.3018 8.44247 36.0138C8.27447 35.7258 8.19047 35.3698 8.19047 34.9458C8.19047 34.4658 8.30247 34.0458 8.52647 33.6858C8.75847 33.3178 9.08647 33.0338 9.51047 32.8338C9.93447 32.6258 10.4385 32.5218 11.0225 32.5218C11.6465 32.5218 12.1825 32.6418 12.6305 32.8818C13.0785 33.1138 13.4345 33.4338 13.6985 33.8418C13.9625 34.2498 14.1265 34.7138 14.1905 35.2338L13.1105 35.3058C13.0625 34.9618 12.9505 34.6578 12.7745 34.3938C12.6065 34.1218 12.3745 33.9098 12.0785 33.7578C11.7825 33.6058 11.4225 33.5298 10.9985 33.5298C10.4705 33.5298 10.0505 33.6578 9.73847 33.9138C9.42647 34.1618 9.27047 34.4898 9.27047 34.8978C9.27047 35.1618 9.33047 35.3818 9.45047 35.5578C9.57847 35.7258 9.80247 35.8778 10.1225 36.0138C10.4425 36.1418 10.9025 36.2818 11.5025 36.4338C12.2145 36.6098 12.7785 36.8218 13.1945 37.0698C13.6185 37.3098 13.9185 37.5898 14.0945 37.9098C14.2785 38.2298 14.3705 38.5938 14.3705 39.0018C14.3705 39.4978 14.2425 39.9298 13.9865 40.2978C13.7305 40.6578 13.3785 40.9378 12.9305 41.1378C12.4825 41.3298 11.9665 41.4258 11.3825 41.4258ZM17.4618 41.2338V33.7218H14.8098V32.7138H21.1458V33.7218H18.4938V41.2338H17.4618ZM22.1476 41.2338V32.7138H24.7876C26.0996 32.7138 27.1076 33.0858 27.8116 33.8298C28.5236 34.5658 28.8796 35.6178 28.8796 36.9858C28.8796 38.3458 28.5316 39.3938 27.8356 40.1298C27.1396 40.8658 26.1476 41.2338 24.8596 41.2338H22.1476ZM23.1796 40.2258H24.7876C25.7876 40.2258 26.5396 39.9578 27.0436 39.4218C27.5476 38.8778 27.7996 38.0658 27.7996 36.9858C27.7996 35.8898 27.5476 35.0738 27.0436 34.5378C26.5396 33.9938 25.7876 33.7218 24.7876 33.7218H23.1796V40.2258Z" fill="white"/>
<g filter="url(#filter0_d_582_539)">
<path d="M137.15 37.7617L149.169 18.9321L152.674 18.7318L137.45 42.2188C135.097 45.8244 133.995 48.6288 133.995 50.1312C133.995 51.3832 135.097 52.535 136.349 52.4849C139.053 52.3848 145.112 48.4786 151.623 39.3142L151.923 39.5646C144.912 49.4301 140.105 51.6336 139.153 52.1844C138.652 52.5851 138.001 53.2862 137.5 54.3378C137.05 55.2893 136.9 56.3911 136.9 57.4427C137.05 60.8481 134.846 62.6509 132.092 63.6525L129.889 64.4037L129.738 64.0031L132.042 63.2018C133.845 62.2002 133.945 60.5476 134.095 58.3942C134.145 55.2393 137.4 53.2361 138.152 52.5851C137.3 52.9857 136.449 53.1359 135.447 53.1359C132.993 53.1359 131.491 51.6336 131.491 49.0796C131.491 47.427 132.142 45.8244 133.294 43.9715C127.735 50.2815 122.527 53.0859 119.372 53.0859C117.219 53.0859 115.866 51.7838 115.866 49.4301C115.866 46.4254 118.12 43.3205 121.175 38.8134C127.685 29.1983 131.391 23.7397 131.391 21.386C131.391 19.533 130.489 18.5315 128.687 18.5315C125.982 18.5315 122.978 19.7834 119.873 22.3875C116.417 25.2921 114.665 28.2468 114.665 31.2014C114.665 33.455 116.167 35.0074 118.02 35.0074C119.923 35.0074 121.776 33.6553 124.079 31.1513L124.28 31.3516C122.327 34.1561 119.923 35.5583 117.82 35.5583C115.666 35.5583 113.863 33.7054 113.863 31.5019C113.863 28.8978 115.616 25.242 118.921 22.3875C122.226 19.533 126.233 17.9806 129.338 17.9806C132.342 17.9806 133.945 19.533 133.945 22.0871C133.945 24.9415 129.989 30.2499 124.079 39.2641C120.524 44.7227 118.471 48.1781 118.471 50.2314C118.471 51.3331 119.522 52.3347 120.674 52.3347C121.876 52.3347 125.281 50.9826 128.937 47.7775C131.641 45.4238 134.396 42.0685 137.15 37.7617Z" fill="white"/>
<path d="M100.243 17.6312L100.343 17.8315C94.8841 19.8347 91.8794 23.841 89.5257 30.6016C87.1219 37.4624 86.0702 45.0744 81.3628 50.6332L81.463 50.6833C83.9168 48.6801 86.571 44.9743 90.2769 39.9664C92.5805 36.8615 94.784 33.1056 97.9389 29.4498C104.649 21.6876 111.26 17.7314 118.922 17.7314C120.324 17.7314 120.975 17.8315 120.975 18.2822C120.975 18.5827 120.675 18.8331 120.024 18.8331C118.621 18.8331 117.52 18.4826 116.919 18.4826C116.418 18.4826 113.413 19.9849 110.609 23.3402C107.354 27.2464 105.551 31.9538 103.398 36.5109C99.3411 45.0244 95.6353 50.1324 90.2268 52.0855C99.241 52.0855 104.7 48.1793 109.707 39.4155L110.108 39.6158C105.401 48.1292 99.7418 52.4861 91.0781 52.4861C90.5773 52.4861 90.1266 52.4861 89.6258 52.436C88.5742 52.6363 87.7729 52.7365 87.3222 52.7365C86.7213 52.7365 86.4208 52.5863 86.4208 52.2357C86.4208 51.9853 86.6211 51.8351 87.0217 51.8351C87.8731 51.8351 88.6743 51.9853 89.3754 52.0855C92.0296 50.8335 93.8325 48.9806 95.4851 46.2763C97.4882 43.0212 99.1408 38.7144 101.545 33.7566C105.05 26.4952 109.257 21.5875 115.066 18.733L115.016 18.5326C106.102 20.2854 100.042 26.7456 93.0312 36.8114C86.4208 46.2763 81.9638 51.7349 79.1093 53.037L78.8589 52.7866C80.4614 50.6833 81.4129 47.9289 82.5146 44.6237C84.2173 39.4155 85.1688 34.8583 86.571 31.2527C88.5241 26.2949 91.629 22.4388 96.3865 19.2337L96.3364 19.1336C87.8731 21.6876 83.0655 29.0492 77.056 38.9147C71.7477 47.6785 68.2922 53.087 62.8336 53.087C60.5801 53.087 59.3281 52.1355 59.3281 50.6332C59.3281 49.4814 60.0292 48.6801 61.0308 48.6801C61.8821 48.6801 62.4831 49.3311 62.4831 50.0823C62.4831 51.134 61.9823 51.6348 60.9807 51.6348C61.6318 52.0354 62.3329 52.1856 63.1341 52.1856C66.5896 52.1856 68.9433 50.1825 71.7477 46.4266C74.4519 42.8209 76.6554 38.6143 79.3096 34.3576C85.1187 24.9427 90.5273 19.5843 100.243 17.6312Z" fill="white"/>
</g>
<path d="M181.938 41.2338C181.938 40.6338 182.03 40.0938 182.214 39.6138C182.406 39.1258 182.738 38.6618 183.21 38.2218C183.69 37.7818 184.354 37.3378 185.202 36.8898C185.594 36.6818 185.91 36.4898 186.15 36.3138C186.39 36.1378 186.566 35.9498 186.678 35.7498C186.79 35.5498 186.846 35.3058 186.846 35.0178C186.846 34.7218 186.782 34.4658 186.654 34.2498C186.526 34.0258 186.334 33.8498 186.078 33.7218C185.83 33.5938 185.518 33.5298 185.142 33.5298C184.542 33.5298 184.066 33.6858 183.714 33.9978C183.37 34.3098 183.154 34.7538 183.066 35.3298L181.986 35.2578C182.082 34.4258 182.402 33.7618 182.946 33.2658C183.49 32.7698 184.222 32.5218 185.142 32.5218C185.726 32.5218 186.226 32.6258 186.642 32.8338C187.058 33.0418 187.374 33.3338 187.59 33.7098C187.814 34.0778 187.926 34.5058 187.926 34.9938C187.926 35.4258 187.854 35.8018 187.71 36.1218C187.566 36.4338 187.322 36.7258 186.978 36.9978C186.642 37.2698 186.178 37.5618 185.586 37.8738C184.818 38.2818 184.234 38.6938 183.834 39.1098C183.442 39.5258 183.234 39.8978 183.21 40.2258H187.926V41.2338H181.938ZM192.623 41.4258C191.935 41.4258 191.339 41.2458 190.835 40.8858C190.331 40.5258 189.939 40.0138 189.659 39.3498C189.387 38.6858 189.251 37.8978 189.251 36.9858C189.251 36.0738 189.387 35.2858 189.659 34.6218C189.939 33.9498 190.331 33.4338 190.835 33.0738C191.339 32.7058 191.935 32.5218 192.623 32.5218C193.319 32.5218 193.919 32.7058 194.423 33.0738C194.927 33.4338 195.315 33.9458 195.587 34.6098C195.867 35.2738 196.007 36.0658 196.007 36.9858C196.007 37.8978 195.867 38.6858 195.587 39.3498C195.315 40.0138 194.927 40.5258 194.423 40.8858C193.919 41.2458 193.319 41.4258 192.623 41.4258ZM192.623 40.4178C193.359 40.4178 193.927 40.1218 194.327 39.5298C194.727 38.9298 194.927 38.0818 194.927 36.9858C194.927 36.2498 194.835 35.6258 194.651 35.1138C194.475 34.5938 194.215 34.2018 193.871 33.9378C193.535 33.6658 193.119 33.5298 192.623 33.5298C192.135 33.5298 191.719 33.6658 191.375 33.9378C191.039 34.2018 190.779 34.5938 190.595 35.1138C190.419 35.6258 190.331 36.2498 190.331 36.9858C190.331 38.0818 190.531 38.9298 190.931 39.5298C191.331 40.1218 191.895 40.4178 192.623 40.4178ZM197.33 41.2338C197.33 40.6338 197.422 40.0938 197.606 39.6138C197.798 39.1258 198.13 38.6618 198.602 38.2218C199.082 37.7818 199.746 37.3378 200.594 36.8898C200.986 36.6818 201.302 36.4898 201.542 36.3138C201.782 36.1378 201.958 35.9498 202.07 35.7498C202.182 35.5498 202.238 35.3058 202.238 35.0178C202.238 34.7218 202.174 34.4658 202.046 34.2498C201.918 34.0258 201.726 33.8498 201.47 33.7218C201.222 33.5938 200.91 33.5298 200.534 33.5298C199.934 33.5298 199.458 33.6858 199.106 33.9978C198.762 34.3098 198.546 34.7538 198.458 35.3298L197.378 35.2578C197.474 34.4258 197.794 33.7618 198.338 33.2658C198.882 32.7698 199.614 32.5218 200.534 32.5218C201.118 32.5218 201.618 32.6258 202.034 32.8338C202.45 33.0418 202.766 33.3338 202.982 33.7098C203.206 34.0778 203.318 34.5058 203.318 34.9938C203.318 35.4258 203.246 35.8018 203.102 36.1218C202.958 36.4338 202.714 36.7258 202.37 36.9978C202.034 37.2698 201.57 37.5618 200.978 37.8738C200.21 38.2818 199.626 38.6938 199.226 39.1098C198.834 39.5258 198.626 39.8978 198.602 40.2258H203.318V41.2338H197.33ZM208.015 41.4258C207.327 41.4258 206.731 41.2458 206.227 40.8858C205.723 40.5258 205.331 40.0138 205.051 39.3498C204.779 38.6858 204.643 37.8978 204.643 36.9858C204.643 36.0738 204.779 35.2858 205.051 34.6218C205.331 33.9498 205.723 33.4338 206.227 33.0738C206.731 32.7058 207.327 32.5218 208.015 32.5218C208.711 32.5218 209.311 32.7058 209.815 33.0738C210.319 33.4338 210.707 33.9458 210.979 34.6098C211.259 35.2738 211.399 36.0658 211.399 36.9858C211.399 37.8978 211.259 38.6858 210.979 39.3498C210.707 40.0138 210.319 40.5258 209.815 40.8858C209.311 41.2458 208.711 41.4258 208.015 41.4258ZM208.015 40.4178C208.751 40.4178 209.319 40.1218 209.719 39.5298C210.119 38.9298 210.319 38.0818 210.319 36.9858C210.319 36.2498 210.227 35.6258 210.043 35.1138C209.867 34.5938 209.607 34.2018 209.263 33.9378C208.927 33.6658 208.511 33.5298 208.015 33.5298C207.527 33.5298 207.111 33.6658 206.767 33.9378C206.431 34.2018 206.171 34.5938 205.987 35.1138C205.811 35.6258 205.723 36.2498 205.723 36.9858C205.723 38.0818 205.923 38.9298 206.323 39.5298C206.723 40.1218 207.287 40.4178 208.015 40.4178Z" fill="white"/>
<defs>
<filter id="filter0_d_582_539" x="35.3961" y="-0.397505" width="141.208" height="82.4325" filterUnits="userSpaceOnUse" color-interpolation-filters="sRGB">
<feFlood flood-opacity="0" result="BackgroundImageFix"/>
<feColorMatrix in="SourceAlpha" type="matrix" values="0 0 0 0 0 0 0 0 0 0 0 0 0 0 0 0 0 0 127 0" result="hardAlpha"/>
<feOffset/>
<feGaussianBlur stdDeviation="8.81563"/>
<feComposite in2="hardAlpha" operator="out"/>
<feColorMatrix type="matrix" values="0 0 0 0 0 0 0 0 0 0 0 0 0 0 0 0 0 0 0.1 0"/>
<feBlend mode="normal" in2="BackgroundImageFix" result="effect1_dropShadow_582_539"/>
<feBlend mode="normal" in="SourceGraphic" in2="effect1_dropShadow_582_539" result="shape"/>
</filter>
</defs>
</svg>
