<svg width="14" height="13" viewBox="0 0 14 13" fill="none" xmlns="http://www.w3.org/2000/svg">
<path fill-rule="evenodd" clip-rule="evenodd" d="M7.26912 3.07319C6.19423 3.53549 4.04616 4.49238 0.82491 5.94385C0.302036 6.15929 0.0280265 6.36987 0.00288281 6.57559C-0.0391186 6.92274 0.38261 7.05989 0.956057 7.24675L1.19692 7.32561C1.7618 7.51591 2.52039 7.73706 2.91469 7.74649C3.27299 7.75449 3.67243 7.60191 4.11302 7.28876C7.12283 5.18754 8.6766 4.12551 8.77432 4.10265C8.84289 4.08551 8.93803 4.06579 9.00318 4.12494C9.06747 4.18494 9.06147 4.29637 9.05461 4.32723C9.01261 4.51152 7.35998 6.10157 6.50453 6.9236C6.23795 7.1799 6.04851 7.36162 6.00994 7.40362C5.92251 7.49562 5.83593 7.58419 5.75022 7.66934C5.22563 8.19221 4.83304 8.58308 5.77164 9.22339C6.22252 9.53112 6.58424 9.78484 6.94425 10.0386C7.3377 10.3163 7.73028 10.5923 8.23858 10.9369C8.36659 11.0255 8.49059 11.1146 8.6106 11.2043C9.06832 11.542 9.47977 11.8455 9.98807 11.7966C10.2838 11.7683 10.5881 11.4812 10.7432 10.6249C11.1092 8.60109 11.8293 4.21494 11.9947 2.40802C12.0055 2.25784 11.9997 2.10693 11.9776 1.95801C11.9645 1.83933 11.9084 1.72956 11.8198 1.64943C11.687 1.53799 11.483 1.51399 11.3913 1.51571C10.9755 1.52342 10.3378 1.75314 7.26912 3.07319Z" fill="#1D2023"/>
</svg>
