<svg width="13" height="13" viewBox="0 0 13 13" fill="none" xmlns="http://www.w3.org/2000/svg">
<g clip-path="url(#clip0_592_7339)">
<path fill-rule="evenodd" clip-rule="evenodd" d="M6.15953 -0.126465C9.5987 -0.126465 12.3946 2.6712 12.3946 6.11037C12.3946 9.54954 9.59781 12.3472 6.15953 12.3472C4.93914 12.3497 3.7453 11.991 2.72837 11.3164L0.331645 12.0826L1.10858 9.76605C0.334933 8.70432 -0.0810027 7.42407 -0.079095 6.11037C-0.079095 2.6712 2.71768 -0.126465 6.15596 -0.126465H6.15953ZM3.81002 2.72644C3.57124 2.72644 3.32266 2.79594 3.17208 2.94919C2.98854 3.13629 2.53414 3.57287 2.53414 4.46741C2.53414 5.36195 3.18634 6.22798 3.27454 6.34916C3.3672 6.46944 4.54686 8.33247 6.3796 9.09158C7.81318 9.68586 8.23818 9.63062 8.56427 9.56113C9.04095 9.45777 9.6379 9.10584 9.78847 8.68084C9.93905 8.25496 9.93905 7.89233 9.89539 7.8157C9.85084 7.73819 9.72967 7.69453 9.54702 7.60187C9.36348 7.51099 8.4725 7.07085 8.30411 7.01204C8.13839 6.94967 7.98157 6.97195 7.85684 7.14836C7.68131 7.39338 7.50936 7.64285 7.36947 7.79343C7.25899 7.91015 7.0799 7.92529 6.92933 7.86293C6.72797 7.77828 6.16309 7.58049 5.46724 6.96126C4.9273 6.48013 4.56111 5.88317 4.45509 5.7032C4.34906 5.52055 4.44439 5.41452 4.52815 5.31562C4.62081 5.20158 4.70812 5.11961 4.79989 5.01447C4.89167 4.90755 4.94245 4.85321 5.00126 4.72847C5.06362 4.6073 5.01907 4.48256 4.97453 4.3899C4.93176 4.29902 4.56468 3.40359 4.41499 3.04096C4.29382 2.75228 4.20116 2.7407 4.01851 2.73357C3.9491 2.72916 3.87957 2.72678 3.81002 2.72644Z" fill="#1D2023"/>
</g>
<defs>
<clipPath id="clip0_592_7339">
<rect width="12.6316" height="12.6316" fill="white"/>
</clipPath>
</defs>
</svg>
